<?xml version="1.0" encoding="UTF-8"?>
<!DOCTYPE svg PUBLIC "-//W3C//DTD SVG 1.1//EN" "http://www.w3.org/Graphics/SVG/1.1/DTD/svg11.dtd">
<svg xmlns="http://www.w3.org/2000/svg" version="1.1" width="128px" height="128px" style="shape-rendering:geometricPrecision; text-rendering:geometricPrecision; image-rendering:optimizeQuality; fill-rule:evenodd; clip-rule:evenodd" xmlns:xlink="http://www.w3.org/1999/xlink">
<g><path style="opacity:0.987" fill="#ff4a4a" d="M 51.5,-0.5 C 55.5,-0.5 59.5,-0.5 63.5,-0.5C 63.5,7.83333 63.5,16.1667 63.5,24.5C 58.6367,24.1805 53.97,24.5139 49.5,25.5C 48.8826,25.6107 48.3826,25.944 48,26.5C 47.5004,33.4921 47.3337,40.4921 47.5,47.5C 40.4921,47.3337 33.4921,47.5004 26.5,48C 25.1667,58.3333 25.1667,68.6667 26.5,79C 33.4921,79.4996 40.4921,79.6663 47.5,79.5C 47.3337,86.5079 47.5004,93.5079 48,100.5C 48.6708,101.252 49.5041,101.586 50.5,101.5C 54.6344,102.485 58.9677,102.818 63.5,102.5C 63.5,110.833 63.5,119.167 63.5,127.5C 59.8333,127.5 56.1667,127.5 52.5,127.5C 24.2818,120.949 6.61511,103.615 -0.5,75.5C -0.5,67.5 -0.5,59.5 -0.5,51.5C 6.5,23.8333 23.8333,6.5 51.5,-0.5 Z"/></g>
<g><path style="opacity:1" fill="#e20459" d="M 63.5,-0.5 C 67.5,-0.5 71.5,-0.5 75.5,-0.5C 103.167,6.5 120.5,23.8333 127.5,51.5C 127.5,59.5 127.5,67.5 127.5,75.5C 120.411,103.588 102.745,120.922 74.5,127.5C 70.8333,127.5 67.1667,127.5 63.5,127.5C 63.5,119.167 63.5,110.833 63.5,102.5C 68.1785,102.666 72.8452,102.499 77.5,102C 78,101.5 78.5,101 79,100.5C 79.3333,93.8333 79.6667,87.1667 80,80.5C 86.7529,79.686 93.5863,79.186 100.5,79C 101,78.5 101.5,78 102,77.5C 102.667,68.1667 102.667,58.8333 102,49.5C 101.5,49 101,48.5 100.5,48C 93.8333,47.6667 87.1667,47.3333 80.5,47C 79.686,40.2471 79.186,33.4137 79,26.5C 78.5,26 78,25.5 77.5,25C 72.8452,24.5008 68.1785,24.3342 63.5,24.5C 63.5,16.1667 63.5,7.83333 63.5,-0.5 Z"/></g>
<g><path style="opacity:1" fill="#fffefe" d="M 49.5,25.5 C 54.1667,25.5 58.8333,25.5 63.5,25.5C 63.5,50.8333 63.5,76.1667 63.5,101.5C 59.1667,101.5 54.8333,101.5 50.5,101.5C 49.5041,101.586 48.6708,101.252 48,100.5C 47.5004,93.5079 47.3337,86.5079 47.5,79.5C 40.4921,79.6663 33.4921,79.4996 26.5,79C 25.1667,68.6667 25.1667,58.3333 26.5,48C 33.4921,47.5004 40.4921,47.3337 47.5,47.5C 47.3337,40.4921 47.5004,33.4921 48,26.5C 48.3826,25.944 48.8826,25.6107 49.5,25.5 Z"/></g>
<g><path style="opacity:1" fill="#f4eeee" d="M 49.5,25.5 C 53.97,24.5139 58.6367,24.1805 63.5,24.5C 68.1785,24.3342 72.8452,24.5008 77.5,25C 78,25.5 78.5,26 79,26.5C 79.186,33.4137 79.686,40.2471 80.5,47C 87.1667,47.3333 93.8333,47.6667 100.5,48C 101,48.5 101.5,49 102,49.5C 102.667,58.8333 102.667,68.1667 102,77.5C 101.5,78 101,78.5 100.5,79C 93.5863,79.186 86.7529,79.686 80,80.5C 79.6667,87.1667 79.3333,93.8333 79,100.5C 78.5,101 78,101.5 77.5,102C 72.8452,102.499 68.1785,102.666 63.5,102.5C 58.9677,102.818 54.6344,102.485 50.5,101.5C 54.8333,101.5 59.1667,101.5 63.5,101.5C 63.5,76.1667 63.5,50.8333 63.5,25.5C 58.8333,25.5 54.1667,25.5 49.5,25.5 Z"/></g>
</svg>
